HIERARCHY
ROOT pelvis
{
  OFFSET 0 100 0
  CHANNELS 6 Xposition Yposition Zposition Zrotation Xrotation Yrotation
  JOINT pelvis_right_femur
  {
    OFFSET -10.78128 -3.44521 -0.5502486
    CHANNELS 3 Zrotation Xrotation Yrotation
    JOINT right_femur_tibia
    {
      OFFSET -0.8047443 -44.0398 -0.1307829
      CHANNELS 3 Zrotation Xrotation Yrotation
      JOINT right_tibia_foot
      {
        OFFSET 3.006224 -47.83518 -5
        CHANNELS 3 Zrotation Xrotation Yrotation
        End Site
        {
          OFFSET 0 -5 15
        }
      }
    }
  }
  JOINT pelvis_left_femur
  {
    OFFSET 10.78128 -3.44521 -0.5502486
    CHANNELS 3 Zrotation Xrotation Yrotation
    JOINT left_femur_tibia
    {
      OFFSET 0.8047443 -44.0398 -0.1307829
      CHANNELS 3 Zrotation Xrotation Yrotation
      JOINT left_tibia_foot
      {
        OFFSET -4.370144 -48.10324 -4.275266
        CHANNELS 3 Zrotation Xrotation Yrotation
        End Site
        {
          OFFSET 0 -5 15
        }
      }
    }
  }
  JOINT pelvis_spine1
  {
    OFFSET 0 6.468898 -3.129235
    CHANNELS 3 Zrotation Xrotation Yrotation
    JOINT spine1
    {
      OFFSET 0 23.15396 4.99043
      CHANNELS 3 Zrotation Xrotation Yrotation
      JOINT spine2
      {
        OFFSET 0 20.79997 -5.064912
        CHANNELS 3 Zrotation Xrotation Yrotation
        JOINT neck
        {
          OFFSET 0 14.38658 9.616178
          CHANNELS 3 Zrotation Xrotation Yrotation
          End Site
          {
            OFFSET 0 20 0
          }
        }
      }
      JOINT right_manubrium
      {
        OFFSET -5.722621 16.35077 3.967754
        CHANNELS 3 Zrotation Xrotation Yrotation
        JOINT right_clavicle
        {
          OFFSET -13.16364 1.694482 -4.693211
          CHANNELS 3 Zrotation Xrotation Yrotation
          JOINT right_humerus
          {
            OFFSET -28.5034 -0.3100689 -2.792744
            CHANNELS 3 Zrotation Xrotation Yrotation
            JOINT right_radius
            {
              OFFSET -25.15693 0.02248979 -1.271978
              CHANNELS 3 Zrotation Xrotation Yrotation
              End Site
              {
                OFFSET -15 0 0
              }
            }
          }
        }
      }
      JOINT left_manubrium
      {
        OFFSET 5.722621 16.35077 3.967754
        CHANNELS 3 Zrotation Xrotation Yrotation
        JOINT left_clavicle
        {
          OFFSET 13.16364 1.694482 -4.693211
          CHANNELS 3 Zrotation Xrotation Yrotation
          JOINT left_humerus
          {
            OFFSET 29.39168 -1.063119 -2.237045
            CHANNELS 3 Zrotation Xrotation Yrotation
            JOINT left_radius
            {
              OFFSET 24.59957 -0.9528479 0.9047498
              CHANNELS 3 Zrotation Xrotation Yrotation
              End Site
              {
                OFFSET 15 -0 -0
              }
            }
          }
        }
      }
    }
  }
}
MOTION
Frames: 7
Frame Time: 0.0416666666667
-671.1218 104.4762 2853.749 -2.850936 -4.123111 -30.95779 4.78044 -22.2958 0.2025902 -0 10.92573 -0 -5.788064 -0.06759117 -5.360156 -3.64237 12.99545 -7.05946 -0 37.83607 -0 -4.988838 -13.35147 11.38832 1.238208 -3.285631 3.94434 1.018059 15.08538 -8.287015 1.773617 21.45307 3.910721 1.134272 -20.1032 6.23913 -3.656583 -22.39205 11.5373 97.45767 13.37297 -23.91095 -0 0 10.601 -20.76328 13.22975 9.950544 4.569325 -27.90099 -9.456745 -86.75361 17.19035 17.59657 0 0 -27.70605 7.882481 14.99375 5.497746
-674.8206 105.1389 2859.108 -3.307903 -4.865505 -31.2793 5.482013 -17.75285 1.371505 -0 12.72975 -0 -5.7714 -1.301313 -5.490645 -3.304751 9.396671 -6.789753 -0 46.80326 -0 -5.550706 -10.77629 11.99245 1.347247 -3.3818 4.341951 0.8800224 15.26505 -8.020655 1.749647 21.34731 3.802314 1.093739 -20.21933 6.127642 -3.773055 -23.2087 11.59365 97.00917 13.20134 -22.95406 -0 0 11.88481 -20.97582 13.25152 10.32633 4.355347 -27.58561 -9.437983 -87.70695 17.11994 19.49031 0 0 -26.47232 7.529199 15.09514 5.986933
-678.3786 106.2146 2864.195 -3.677265 -5.387433 -31.86288 6.092721 -12.49698 2.558649 -0 13.84193 -0 -5.942811 -3.494861 -5.352106 -2.833015 4.789035 -6.786769 -0 53.95379 -0 -5.705992 -8.31118 13.05845 1.470183 -3.475303 4.886611 0.6766693 15.46119 -7.626745 1.723369 21.22051 3.666036 1.042956 -20.33066 5.986534 -3.892327 -24.26148 11.66133 96.32969 13.04065 -21.57973 -0 0 13.64759 -21.31183 13.28094 10.86263 4.07286 -27.07802 -9.368199 -89.00548 17.01778 21.99935 0 0 -24.70796 6.973961 15.1731 6.717395
-681.7676 107.4464 2869.014 -3.908043 -5.624495 -32.66489 6.424026 -7.2059 3.369911 -0 13.79613 -0 -6.189636 -6.070357 -4.929288 -2.244218 -0.2536221 -6.778005 -0 57.31516 -0 -5.52445 -6.400189 14.25195 1.605625 -3.571428 5.512691 0.4399843 15.6691 -7.168472 1.694713 21.07787 3.513469 0.9836209 -20.45091 5.829828 -4.016547 -25.45327 11.73527 95.54448 12.8622 -19.99154 -0 0 15.67525 -21.70232 13.3146 11.48129 3.749095 -26.47289 -9.27152 -90.51296 16.86236 24.85317 0 0 -22.67358 6.29786 15.23717 7.599441
-685.0212 108.5422 2873.7 -3.987706 -5.618156 -33.59656 6.409619 -2.290206 3.600497 -0 12.6503 -0 -6.363904 -8.448884 -4.257843 -1.538176 -5.272078 -6.525148 -0 56.04719 -0 -5.118109 -5.259497 15.30559 1.737108 -3.655873 6.174039 0.1839804 15.86395 -6.672026 1.666444 20.93451 3.358935 0.9237501 -20.56126 5.670089 -4.125998 -26.68315 11.80948 94.69573 12.695 -18.28772 -0 0 17.81937 -22.12698 13.34539 12.14099 3.411705 -25.80057 -9.145265 -92.11853 16.64378 27.82203 0 0 -20.49278 5.552347 15.27134 8.559633
-688.1887 109.2621 2878.413 -3.932053 -5.456472 -34.56244 6.097166 2.169479 3.313171 -0 10.88739 -0 -6.381337 -10.37357 -3.400529 -0.7303778 -10.0498 -5.988587 -0 50.63036 -0 -4.562442 -4.848679 16.15825 1.842732 -3.704467 6.854865 -0.09520034 16.01313 -6.127905 1.642962 20.8072 3.213537 0.8719466 -20.62513 5.51544 -4.192333 -27.88189 11.87979 93.75124 12.59069 -16.45376 -0 0 20.03197 -22.60944 13.36665 12.84232 3.077177 -25.03235 -8.967285 -93.76883 16.36413 30.78396 0 0 -18.15055 4.740633 15.24164 9.573585
-691.2991 109.4613 2883.261 -3.770424 -5.219414 -35.48685 5.585142 6.185954 2.730342 -0 9.11418 -0 -6.238248 -11.8574 -2.44317 0.1121908 -14.46145 -5.304978 -0 42.36324 -0 -3.895122 -4.993854 16.88397 1.903205 -3.695057 7.542718 -0.4008255 16.08602 -5.527849 1.629184 20.70988 3.086192 0.8331474 -20.60898 5.374423 -4.192479 -28.98946 11.94267 92.6794 12.58672 -14.47214 -0 0 22.27605 -23.17462 13.37581 13.58857 2.756099 -24.13865 -8.717676 -95.41593 16.04566 33.63778 0 0 -15.63779 3.847654 15.11135 10.64314
